<svg width="237" height="50" viewBox="0 0 237 50" fill="none" xmlns="http://www.w3.org/2000/svg">
<path d="M91.8088 42.6598C91.4897 43.4045 90.6386 43.8301 89.5748 43.8301C88.6174 43.8301 87.7663 43.4045 87.2344 42.7662L87.8727 42.1279C87.8727 42.2343 87.9791 42.2343 87.9791 42.3407C88.4046 42.7662 88.9365 43.0854 89.5748 43.0854C90.3195 43.0854 90.745 42.7662 90.9578 42.3407C91.0642 42.0215 90.9578 41.7024 90.9578 41.7024C90.745 41.1705 90.3195 41.0641 89.5748 40.8513C88.8301 40.6386 87.8727 40.3194 87.5535 39.4684C87.3408 39.0428 87.4471 38.5109 87.6599 38.0854C88.1918 37.1279 89.362 37.1279 89.5748 37.1279C90.5322 37.1279 91.3833 37.5535 91.9152 38.1918L91.2769 38.8301C91.2769 38.7237 91.1705 38.7237 91.1705 38.6173C90.745 38.1918 90.2131 37.8726 89.5748 37.8726C89.5748 37.8726 88.8301 37.8726 88.511 38.4045C88.4046 38.6173 88.4046 38.9364 88.4046 39.1492C88.6174 39.5747 89.0429 39.7875 89.7876 40.0003C90.6386 40.213 91.4897 40.5322 91.8088 41.3832C91.8088 41.4896 92.0216 42.1279 91.8088 42.6598ZM98.2982 38.0854H96.2769V43.7237H95.3195V38.0854H93.2982V37.3407H98.1918V38.0854H98.2982ZM104.575 43.7237H103.511L102.873 42.0215H100.319L99.6812 43.7237H98.6174L101.277 37.3407H101.809L104.575 43.7237ZM102.554 41.2769L101.596 38.7237L100.639 41.2769H102.554ZM109.468 41.7024L110.851 43.7237H109.788L108.511 41.9152H107.022V43.7237H106.064V37.4471H108.511C109.788 37.4471 110.745 38.4045 110.745 39.6811C110.851 40.5322 110.319 41.3832 109.468 41.7024ZM107.128 41.0641H108.617C109.362 41.0641 109.894 40.4258 109.894 39.5747C109.894 38.7237 109.256 38.0854 108.617 38.0854H107.128V41.0641ZM117.128 38.0854H115.107V43.7237H114.149V38.0854H112.128V37.3407H117.022V38.0854H117.128ZM123.724 37.3407V41.1705C123.724 42.2343 123.298 43.8301 121.171 43.8301C119.043 43.8301 118.617 42.2343 118.617 41.1705V37.3407H119.575V41.1705C119.575 41.596 119.681 43.0854 121.171 43.0854C122.66 43.0854 122.766 41.596 122.766 41.1705V37.3407H123.724ZM128.298 42.0215H126.809V43.7237H125.851V37.3407H128.298C129.575 37.3407 130.532 38.4045 130.532 39.6811C130.532 40.9577 129.575 42.0215 128.298 42.0215ZM129.575 39.6811C129.575 38.8301 128.937 38.0854 128.298 38.0854H126.809V41.1705H128.298C129.043 41.2769 129.575 40.5322 129.575 39.6811ZM140.745 43.7237H139.681L139.043 42.0215H136.49L135.851 43.7237H134.788L137.447 37.3407H137.979L140.745 43.7237ZM138.83 41.2769L137.873 38.7237L136.915 41.2769H138.83ZM147.341 42.8726C146.702 43.5109 145.958 43.9364 145 43.9364C143.192 43.9364 141.809 42.4471 141.809 40.5322C141.809 38.7237 143.298 37.2343 145 37.2343C145.958 37.2343 146.809 37.6598 147.341 38.2981L146.702 38.9364C146.702 38.8301 146.596 38.8301 146.596 38.7237C146.171 38.2981 145.639 37.979 145 37.979C144.362 37.979 143.83 38.1918 143.405 38.7237C142.979 39.2556 142.766 39.8939 142.766 40.5322C142.766 41.2769 142.979 41.9152 143.405 42.3407C143.83 42.7662 144.362 43.0854 145 43.0854C145.639 43.0854 146.171 42.8726 146.596 42.3407L146.702 42.2343L147.341 42.8726ZM154.681 42.8726C154.043 43.5109 153.298 43.9364 152.341 43.9364C150.532 43.9364 149.149 42.4471 149.149 40.5322C149.149 38.7237 150.639 37.2343 152.341 37.2343C153.298 37.2343 154.149 37.6598 154.681 38.2981L154.043 38.9364C154.043 38.8301 153.936 38.8301 153.936 38.7237C153.511 38.2981 152.979 37.979 152.341 37.979C151.702 37.979 151.171 38.1918 150.745 38.7237C150.319 39.2556 150.107 39.8939 150.107 40.5322C150.107 41.2769 150.319 41.9152 150.745 42.3407C151.171 42.7662 151.702 43.0854 152.341 43.0854C152.979 43.0854 153.511 42.8726 153.936 42.3407L154.043 42.2343L154.681 42.8726ZM161.277 42.8726V43.7237H156.915V37.3407H161.171V38.0854H157.873V40.0003H160.532V40.7449H157.873V42.8726H161.277ZM167.341 42.979V43.7237H163.192V37.3407H164.149V42.979H167.341ZM173.617 42.8726V43.7237H169.256V37.3407H173.511V38.0854H170.213V40.0003H172.873V40.7449H170.213V42.8726H173.617ZM178.936 41.7024L180.319 43.7237H179.256L177.979 41.9152H176.596V43.7237H175.639V37.4471H178.085C179.362 37.4471 180.319 38.4045 180.319 39.6811C180.319 40.5322 179.788 41.3832 178.936 41.7024ZM176.596 41.0641H178.085C178.83 41.0641 179.362 40.4258 179.362 39.5747C179.362 38.7237 178.724 38.0854 178.085 38.0854H176.596V41.0641ZM187.554 43.7237H186.49L185.851 42.0215H183.298L182.66 43.7237H181.596L184.256 37.3407H184.788L187.554 43.7237ZM185.532 41.2769L184.575 38.7237L183.617 41.2769H185.532ZM192.766 38.0854H190.745V43.7237H189.788V38.0854H187.766V37.3407H192.66V38.0854H192.766ZM200.319 40.5322C200.319 42.3407 198.83 43.9364 197.128 43.9364C195.319 43.9364 193.937 42.4471 193.937 40.5322C193.937 38.7237 195.426 37.2343 197.128 37.2343C198.83 37.1279 200.319 38.7237 200.319 40.5322ZM195.426 38.7237C195 39.2556 194.788 39.8939 194.788 40.5322C194.788 41.2769 195 41.9152 195.426 42.3407C195.851 42.7662 196.383 43.0854 197.022 43.0854C197.66 43.0854 198.192 42.8726 198.617 42.3407C199.043 41.8088 199.256 41.1705 199.256 40.5322C199.256 39.8939 199.043 39.1492 198.617 38.7237C198.192 38.2981 197.66 37.979 197.022 37.979C196.49 37.979 195.851 38.1918 195.426 38.7237ZM205.532 41.7024L206.915 43.7237H205.851L204.575 41.9152H203.085V43.7237H202.128V37.4471H204.575C205.851 37.4471 206.809 38.4045 206.809 39.6811C206.915 40.5322 206.383 41.3832 205.532 41.7024ZM203.085 41.0641H204.575C205.319 41.0641 205.851 40.4258 205.851 39.5747C205.851 38.7237 205.213 38.0854 204.575 38.0854H203.085V41.0641Z" fill="#424241"/>
<path d="M79.0428 28.5106C77.128 28.5106 75.2131 28.0851 73.8301 27.4468L74.4684 24.5744C75.9577 25 77.4471 25.3191 79.1492 25.3191C81.0641 25.3191 81.3833 25 81.3833 23.617C81.3833 22.1276 81.2769 22.0212 78.6173 21.3829C74.6811 20.5319 74.0428 19.7872 74.0428 16.1702C74.0428 12.8723 75.2131 11.5957 79.6811 11.5957C81.0641 11.5957 82.7662 11.7021 84.5748 12.1276L84.2556 15.2127C82.4471 14.8936 81.1705 14.7872 79.6811 14.7872C78.0854 14.7872 77.6599 15.1063 77.6599 16.2766C77.6599 17.8723 77.7662 17.8723 80.3194 18.5106C84.6811 19.5744 84.8939 20.4255 84.8939 23.617C85.0003 27.0212 83.9365 28.5106 79.0428 28.5106ZM91.0641 19.2553L90.8514 28.2978H87.3407L87.979 12.0212H91.596L95.5322 22.3404L99.4684 12.0212H103.192L103.83 28.2978H100.319L100 19.2553L97.128 26.1702H93.8301L91.0641 19.2553ZM120.426 28.2978H116.596L115.745 25.1063H110.319L109.468 28.2978H105.639L110.639 12.0212H115.532L120.426 28.2978ZM111.064 22.1276H114.788L112.979 15.3191L111.064 22.1276ZM128.085 23.2978H125.958V28.4042H122.341V12.0212H129.149C133.085 12.0212 134.575 13.617 134.575 16.5957V18.617C134.575 20.6383 133.83 22.0212 132.234 22.6595L136.171 28.1914H131.809L128.085 23.2978ZM130.745 17.0212C130.745 15.7446 130.319 15.3191 128.83 15.3191H125.958V20.1063H128.83C130.426 20.1063 130.745 19.5744 130.745 18.2978V17.0212ZM144.149 15.3191V28.4042H140.426V15.3191H136.064V12.0212H148.511V15.3191H144.149ZM171.383 28.5106C167.447 28.5106 165.426 26.4893 165.426 23.5106V16.7021C165.426 13.7234 167.447 11.7021 171.383 11.7021C173.298 11.7021 175.213 11.9149 176.596 12.234L176.171 15.4255C174.788 15.2127 172.553 15 171.383 15C169.575 15 169.043 15.9574 169.043 17.234V22.8723C169.043 24.1489 169.468 25.2127 171.383 25.2127C172.128 25.2127 172.66 25.2127 173.511 25.1063V20.1063H176.915V27.7659C175.213 28.2978 173.298 28.5106 171.383 28.5106ZM185.851 23.2978H183.724V28.4042H180.107V12.0212H186.915C190.851 12.0212 192.341 13.617 192.341 16.5957V18.617C192.341 20.6383 191.596 22.0212 190 22.6595L193.936 28.1914H189.575L185.851 23.2978ZM188.617 17.0212C188.617 15.7446 188.192 15.3191 186.702 15.3191H183.83V20.1063H186.702C188.298 20.1063 188.617 19.5744 188.617 18.2978V17.0212ZM195.851 28.4042V12.0212H206.064V15.3191H199.468V18.2978H205.532V21.5957H199.468V25.1063H206.064V28.4042H195.851ZM208.83 28.4042V12.0212H219.043V15.3191H212.447V18.2978H218.511V21.5957H212.447V25.1063H219.043V28.4042H208.83Z" fill="#424241"/>
<path d="M208.83 28.4045V12.0215H219.043V15.3194H212.447V18.2981H218.511V21.596H212.447V25.1066H219.043V28.4045H208.83ZM225.426 17.5534V28.2981H221.915V12.0215H226.383L231.702 23.2981V12.0215H235.213V28.2981H230.639L225.426 17.5534Z" fill="#424241"/>
<path fill-rule="evenodd" clip-rule="evenodd" d="M158.938 15.5908L154.875 19.6515L158.936 23.7142L162.998 19.6536L158.938 15.5908Z" fill="#009985"/>
<path fill-rule="evenodd" clip-rule="evenodd" d="M154.823 11.5986L150.76 15.6614L154.823 19.7231L158.884 15.6614L154.823 11.5986Z" fill="#95C11F"/>
<path fill-rule="evenodd" clip-rule="evenodd" d="M154.793 19.6934L150.732 23.7561L154.795 27.8178L158.856 23.7551L154.793 19.6934Z" fill="#95C11F"/>
<path fill-rule="evenodd" clip-rule="evenodd" d="M66.6789 16.0742L62.6172 20.1359L66.6789 24.1987L70.7406 20.1359L66.6789 16.0742Z" fill="#009985"/>
<path fill-rule="evenodd" clip-rule="evenodd" d="M62.6897 20.1841L58.629 24.2468L62.6918 28.3075L66.7535 24.2447L62.6897 20.1841ZM62.6418 12.0117L58.5801 16.0734L62.6428 20.1351L66.7045 16.0724L62.6418 12.0117Z" fill="#95C11F"/>
<path d="M50.2128 4.68085C47.234 5.6383 45.7447 5.31915 44.0426 5.21277C42.3404 5 38.1915 3.29787 35 6.17021C32.766 8.19149 31.4894 12.766 30.2128 16.9149L28.2979 23.4043C28.2979 23.4043 29.0426 19.3617 23.7234 16.1702C18.4043 12.9787 16.9149 12.3404 13.617 10.1064C7.44681 5.95745 1.91489 1.70213 0 0C0.957447 14.7872 7.65957 21.8085 12.8723 25.2128C21.7021 29.6809 24.8936 26.7021 24.8936 26.7021C24.8936 26.7021 10.2128 45.5319 6.70213 50C13.5106 44.2553 17.3404 40.1064 28.8298 36.9149C40.4255 33.9362 40.8511 23.4043 40.8511 17.234C40.8511 11.0638 42.8723 10 46.4894 7.87234C50.2128 5.74468 62.9787 2.44681 62.9787 2.44681C60.3191 2.12766 53.1915 3.7234 50.2128 4.68085Z" fill="#95C11F"/>
<path d="M26.4894 18.5106C25.8511 17.766 24.8936 16.9149 23.617 16.1702C18.2979 12.9787 16.8085 12.3404 13.5106 10.1064C7.44681 5.95745 1.91489 1.70213 0 0C0 0.638298 0.106383 1.2766 0.212766 1.91489L21.5957 23.4043L26.4894 18.5106Z" fill="#95C11F"/>
<path d="M1.91502 10.3193L11.5959 20.0001L14.8937 16.7023L0.212891 1.91504C0.53204 5.10653 1.06395 7.87249 1.91502 10.3193ZM26.4895 18.5108L21.5959 23.4044L24.8937 26.7023L28.1916 23.4044C28.298 23.4044 28.6171 20.9576 26.4895 18.5108Z" fill="#50AF47"/>
<path d="M28.297 23.4044L24.9992 26.7023L28.297 30.0002L31.5949 26.7023L28.297 23.4044ZM11.5949 20.0002L18.1907 26.5959L21.4885 23.2981L14.8928 16.7023L11.5949 20.0002ZM9.25449 22.3406L11.5949 20.0002L1.91406 10.3193C3.72257 15.8513 6.48853 19.681 9.25449 22.3406Z" fill="#009985"/>
<path d="M21.5963 23.4047L18.2984 26.7026L19.0431 27.4473C23.2984 28.2983 25.0005 26.7026 25.0005 26.7026L21.5963 23.4047ZM9.25586 22.3409C10.4261 23.5111 11.7027 24.4685 12.8729 25.1068C14.7878 26.0643 16.3835 26.7026 17.7665 27.0217L18.192 26.5962L11.5963 20.0005L9.25586 22.3409ZM22.0218 30.426L24.8942 33.2983L28.192 30.0005L24.8942 26.7026C24.8942 26.7026 23.7239 28.1919 22.0218 30.426ZM34.8942 23.4047L31.5963 20.1068L28.2984 23.4047L31.5963 26.7026L28.2984 30.0005L31.5963 33.2983L40.2133 24.6813C40.7452 22.1281 40.8516 19.5749 40.8516 17.4473L34.8942 23.4047Z" fill="#0069B4"/>
<path d="M18.297 26.7023L17.8714 27.1278C18.297 27.2342 18.6161 27.3406 19.0416 27.447L18.297 26.7023ZM28.297 30.0002L15.1055 43.1917C18.5097 40.7448 22.5523 38.7236 28.8289 37.0214C36.3821 35.0002 39.148 29.7874 40.2118 24.681L31.5948 33.298L28.297 30.0002ZM50.2119 4.68102C48.5097 5.21293 47.3395 5.31932 46.2757 5.31932L31.5948 20.0002L34.8927 23.298L40.8502 17.3406V17.1278C40.8502 10.9576 42.8714 9.89378 46.4884 7.76613C50.2119 5.63847 62.9778 2.34059 62.9778 2.34059C60.3182 2.12783 53.1906 3.72357 50.2119 4.68102Z" fill="#364B9B"/>
<path d="M6.70117 49.9997C9.78628 47.4465 12.2331 45.1061 15.1054 43.0848L24.8927 33.2976L22.0203 30.4252C17.5522 36.1699 9.25436 46.8082 6.70117 49.9997ZM44.0416 5.21246C42.3395 4.99969 38.1905 3.29756 34.999 6.1699C32.765 8.19118 31.4884 12.7656 30.2118 16.9146L28.2969 23.4039L46.2756 5.31884C45.4246 5.31884 44.7863 5.21246 44.0416 5.21246Z" fill="#41C0F0"/>
</svg>
