<svg width="378" height="80" viewBox="0 0 378 80" fill="none" xmlns="http://www.w3.org/2000/svg">
<path d="M146.893 68.2554C146.383 69.4468 145.021 70.1277 143.319 70.1277C141.787 70.1277 140.425 69.4468 139.574 68.4256L140.595 67.4043C140.595 67.5745 140.766 67.5745 140.766 67.7447C141.447 68.4256 142.298 68.9362 143.319 68.9362C144.51 68.9362 145.191 68.4256 145.532 67.7447C145.702 67.2341 145.532 66.7234 145.532 66.7234C145.191 65.8724 144.51 65.7022 143.319 65.3617C142.127 65.0213 140.596 64.5107 140.085 63.149C139.744 62.4681 139.915 61.6171 140.255 60.9362C141.106 59.4043 142.978 59.4043 143.319 59.4043C144.851 59.4043 146.213 60.0851 147.064 61.1064L146.042 62.1277C146.042 61.9575 145.872 61.9575 145.872 61.7873C145.191 61.1064 144.34 60.5958 143.319 60.5958C143.319 60.5958 142.127 60.5958 141.617 61.4468C141.447 61.7873 141.447 62.2979 141.447 62.6383C141.787 63.3192 142.468 63.6596 143.659 64C145.021 64.3405 146.383 64.8511 146.893 66.2128C146.893 66.383 147.234 67.4043 146.893 68.2554ZM157.276 60.9362H154.042V69.9575H152.51V60.9362H149.276V59.7447H157.106V60.9362H157.276ZM167.319 69.9575H165.617L164.595 67.2341H160.51L159.489 69.9575H157.787L162.042 59.7447H162.893L167.319 69.9575ZM164.085 66.0426L162.553 61.9575L161.021 66.0426H164.085ZM175.149 66.7234L177.361 69.9575H175.659L173.617 67.0639H171.234V69.9575H169.702V59.9149H173.617C175.659 59.9149 177.191 61.4468 177.191 63.4894C177.361 64.8511 176.51 66.2128 175.149 66.7234ZM171.404 65.7022H173.787C174.978 65.7022 175.83 64.6809 175.83 63.3192C175.83 61.9575 174.808 60.9362 173.787 60.9362H171.404V65.7022ZM187.404 60.9362H184.17V69.9575H182.638V60.9362H179.404V59.7447H187.234V60.9362H187.404ZM197.957 59.7447V65.8724C197.957 67.5745 197.276 70.1277 193.872 70.1277C190.468 70.1277 189.787 67.5745 189.787 65.8724V59.7447H191.319V65.8724C191.319 66.5532 191.489 68.9362 193.872 68.9362C196.255 68.9362 196.425 66.5532 196.425 65.8724V59.7447H197.957ZM205.276 67.2341H202.893V69.9575H201.361V59.7447H205.276C207.319 59.7447 208.851 61.4468 208.851 63.4894C208.851 65.532 207.319 67.2341 205.276 67.2341ZM207.319 63.4894C207.319 62.1277 206.298 60.9362 205.276 60.9362H202.893V65.8724H205.276C206.468 66.0426 207.319 64.8511 207.319 63.4894ZM225.191 69.9575H223.489L222.468 67.2341H218.383L217.361 69.9575H215.659L219.915 59.7447H220.766L225.191 69.9575ZM222.127 66.0426L220.596 61.9575L219.064 66.0426H222.127ZM235.744 68.5958C234.723 69.6171 233.532 70.2979 232 70.2979C229.106 70.2979 226.893 67.9149 226.893 64.8511C226.893 61.9575 229.276 59.5745 232 59.5745C233.532 59.5745 234.893 60.2554 235.744 61.2766L234.723 62.2979C234.723 62.1277 234.553 62.1277 234.553 61.9575C233.872 61.2766 233.021 60.766 232 60.766C230.978 60.766 230.127 61.1064 229.447 61.9575C228.766 62.8086 228.425 63.8298 228.425 64.8511C228.425 66.0426 228.766 67.0639 229.447 67.7447C230.127 68.4256 230.978 68.9362 232 68.9362C233.021 68.9362 233.872 68.5958 234.553 67.7447L234.723 67.5745L235.744 68.5958ZM247.489 68.5958C246.468 69.6171 245.276 70.2979 243.744 70.2979C240.851 70.2979 238.638 67.9149 238.638 64.8511C238.638 61.9575 241.021 59.5745 243.744 59.5745C245.276 59.5745 246.638 60.2554 247.489 61.2766L246.468 62.2979C246.468 62.1277 246.298 62.1277 246.298 61.9575C245.617 61.2766 244.766 60.766 243.744 60.766C242.723 60.766 241.872 61.1064 241.191 61.9575C240.51 62.8086 240.17 63.8298 240.17 64.8511C240.17 66.0426 240.51 67.0639 241.191 67.7447C241.872 68.4256 242.723 68.9362 243.744 68.9362C244.766 68.9362 245.617 68.5958 246.298 67.7447L246.468 67.5745L247.489 68.5958ZM258.042 68.5958V69.9575H251.064V59.7447H257.872V60.9362H252.595V64H256.851V65.1915H252.595V68.5958H258.042ZM267.744 68.766V69.9575H261.106V59.7447H262.638V68.766H267.744ZM277.787 68.5958V69.9575H270.808V59.7447H277.617V60.9362H272.34V64H276.595V65.1915H272.34V68.5958H277.787ZM286.298 66.7234L288.51 69.9575H286.808L284.766 67.0639H282.553V69.9575H281.021V59.9149H284.936C286.978 59.9149 288.51 61.4468 288.51 63.4894C288.51 64.8511 287.659 66.2128 286.298 66.7234ZM282.553 65.7022H284.936C286.127 65.7022 286.978 64.6809 286.978 63.3192C286.978 61.9575 285.957 60.9362 284.936 60.9362H282.553V65.7022ZM300.085 69.9575H298.383L297.361 67.2341H293.276L292.255 69.9575H290.553L294.808 59.7447H295.659L300.085 69.9575ZM296.851 66.0426L295.319 61.9575L293.787 66.0426H296.851ZM308.425 60.9362H305.191V69.9575H303.659V60.9362H300.425V59.7447H308.255V60.9362H308.425ZM320.51 64.8511C320.51 67.7447 318.127 70.2979 315.404 70.2979C312.51 70.2979 310.298 67.9149 310.298 64.8511C310.298 61.9575 312.681 59.5745 315.404 59.5745C318.127 59.4043 320.51 61.9575 320.51 64.8511ZM312.681 61.9575C312 62.8086 311.659 63.8298 311.659 64.8511C311.659 66.0426 312 67.0639 312.681 67.7447C313.361 68.4256 314.213 68.9362 315.234 68.9362C316.255 68.9362 317.106 68.5958 317.787 67.7447C318.468 66.8937 318.808 65.8724 318.808 64.8511C318.808 63.8298 318.468 62.6383 317.787 61.9575C317.106 61.2766 316.255 60.766 315.234 60.766C314.383 60.766 313.361 61.1064 312.681 61.9575ZM328.851 66.7234L331.064 69.9575H329.361L327.319 67.0639H324.936V69.9575H323.404V59.9149H327.319C329.361 59.9149 330.893 61.4468 330.893 63.4894C331.064 64.8511 330.213 66.2128 328.851 66.7234ZM324.936 65.7022H327.319C328.51 65.7022 329.361 64.6809 329.361 63.3192C329.361 61.9575 328.34 60.9362 327.319 60.9362H324.936V65.7022Z" fill="#424241"/>
<path d="M126.467 45.6166C123.404 45.6166 120.34 44.9357 118.127 43.9144L119.148 39.3187C121.531 39.9995 123.914 40.5102 126.638 40.5102C129.701 40.5102 130.212 39.9995 130.212 37.7868C130.212 35.4038 130.042 35.2336 125.787 34.2123C119.489 32.8506 118.467 31.6591 118.467 25.8719C118.467 20.5953 120.34 18.5527 127.489 18.5527C129.701 18.5527 132.425 18.7229 135.318 19.4038L134.808 24.34C131.914 23.8293 129.872 23.6591 127.489 23.6591C124.935 23.6591 124.255 24.1698 124.255 26.0421C124.255 28.5953 124.425 28.5953 128.51 29.6166C135.489 31.3187 135.829 32.6804 135.829 37.7868C135.999 43.2336 134.297 45.6166 126.467 45.6166ZM145.701 30.8081L145.361 45.2761H139.744L140.765 19.2336H146.552L152.85 35.7442L159.148 19.2336H165.106L166.127 45.2761H160.51L159.999 30.8081L155.404 41.8719H150.127L145.701 30.8081ZM192.68 45.2761H186.552L185.191 40.1698H176.51L175.148 45.2761H169.021L177.021 19.2336H184.85L192.68 45.2761ZM177.701 35.4038H183.659L180.765 24.5102L177.701 35.4038ZM204.935 37.2761H201.531V45.4464H195.744V19.2336H206.638C212.935 19.2336 215.318 21.7868 215.318 26.5527V29.7868C215.318 33.0208 214.127 35.2336 211.574 36.2549L217.872 45.1059H210.893L204.935 37.2761ZM209.191 27.2336C209.191 25.191 208.51 24.5102 206.127 24.5102H201.531V32.1698H206.127C208.68 32.1698 209.191 31.3187 209.191 29.2761V27.2336ZM230.638 24.5102V45.4464H224.68V24.5102H217.701V19.2336H237.616V24.5102H230.638ZM274.212 45.6166C267.914 45.6166 264.68 42.3825 264.68 37.6166V26.7229C264.68 21.957 267.914 18.7229 274.212 18.7229C277.276 18.7229 280.34 19.0634 282.552 19.574L281.872 24.6804C279.659 24.34 276.084 23.9995 274.212 23.9995C271.318 23.9995 270.467 25.5315 270.467 27.574V36.5953C270.467 38.6378 271.148 40.34 274.212 40.34C275.404 40.34 276.255 40.34 277.616 40.1698V32.1698H283.063V44.4251C280.34 45.2761 277.276 45.6166 274.212 45.6166ZM297.361 37.2761H293.957V45.4464H288.17V19.2336H299.063C305.361 19.2336 307.744 21.7868 307.744 26.5527V29.7868C307.744 33.0208 306.553 35.2336 303.999 36.2549L310.297 45.1059H303.318L297.361 37.2761ZM301.787 27.2336C301.787 25.191 301.106 24.5102 298.723 24.5102H294.127V32.1698H298.723C301.276 32.1698 301.787 31.3187 301.787 29.2761V27.2336ZM313.361 45.4464V19.2336H329.701V24.5102H319.148V29.2761H328.85V34.5527H319.148V40.1698H329.701V45.4464H313.361ZM334.127 45.4464V19.2336H350.467V24.5102H339.914V29.2761H349.616V34.5527H339.914V40.1698H350.467V45.4464H334.127Z" fill="#424241"/>
<path d="M334.127 45.4462V19.2334H350.467V24.51H339.914V29.276H349.616V34.5525H339.914V40.1696H350.467V45.4462H334.127ZM360.68 28.0845V45.276H355.063V19.2334H362.212L370.723 37.2759V19.2334H376.34V45.276H369.021L360.68 28.0845Z" fill="#424241"/>
<path fill-rule="evenodd" clip-rule="evenodd" d="M254.299 24.9443L247.799 31.4414L254.296 37.9418L260.796 31.4448L254.299 24.9443Z" fill="#009985"/>
<path fill-rule="evenodd" clip-rule="evenodd" d="M247.717 18.5586L241.217 25.059L247.717 31.5577L254.216 25.059L247.717 18.5586Z" fill="#95C11F"/>
<path fill-rule="evenodd" clip-rule="evenodd" d="M247.669 31.5098L241.172 38.0102L247.672 44.5089L254.169 38.0085L247.669 31.5098Z" fill="#95C11F"/>
<path fill-rule="evenodd" clip-rule="evenodd" d="M106.684 25.7188L100.186 32.2175L106.684 38.7179L113.183 32.2175L106.684 25.7188Z" fill="#009985"/>
<path fill-rule="evenodd" clip-rule="evenodd" d="M100.304 32.2945L93.8068 38.7949L100.307 45.2919L106.806 38.7915L100.304 32.2945ZM100.227 19.2188L93.7285 25.7175L100.229 32.2162L106.728 25.7158L100.227 19.2188Z" fill="#95C11F"/>
<path d="M80.3404 7.48936C75.5745 9.02128 73.1915 8.51064 70.4681 8.34043C67.7447 8 61.1064 5.2766 56 9.87234C52.4255 13.1064 50.383 20.4255 48.3404 27.0638L45.2766 37.4468C45.2766 37.4468 46.4681 30.9787 37.9574 25.8723C29.4468 20.766 27.0638 19.7447 21.7872 16.1702C11.9149 9.53191 3.06383 2.7234 0 0C1.53191 23.6596 12.2553 34.8936 20.5957 40.3404C34.7234 47.4894 39.8298 42.7234 39.8298 42.7234C39.8298 42.7234 16.3404 72.8511 10.7234 80C21.617 70.8085 27.7447 64.1702 46.1277 59.0638C64.6809 54.2979 65.3617 37.4468 65.3617 27.5745C65.3617 17.7021 68.5957 16 74.383 12.5957C80.3404 9.19149 100.766 3.91489 100.766 3.91489C96.5106 3.40426 85.1064 5.95745 80.3404 7.48936Z" fill="#95C11F"/>
<path d="M42.383 29.617C41.3617 28.4255 39.8298 27.0638 37.7872 25.8723C29.2766 20.766 26.8936 19.7447 21.617 16.1702C11.9149 9.53191 3.06383 2.7234 0 0C0 1.02128 0.170213 2.04255 0.340426 3.06383L34.5532 37.4468L42.383 29.617Z" fill="#95C11F"/>
<path d="M3.06325 16.5103L18.5526 31.9996L23.8292 26.7231L0.339844 3.06348C0.850482 8.16986 1.70155 12.5954 3.06325 16.5103ZM42.3824 29.6167L34.5526 37.4465L39.8292 42.7231L45.1058 37.4465C45.276 37.4465 45.7867 33.5316 42.3824 29.6167Z" fill="#50AF47"/>
<path d="M45.2772 37.4469L40.0006 42.7235L45.2772 48.0001L50.5538 42.7235L45.2772 37.4469ZM18.5538 32.0001L29.107 42.5533L34.3836 37.2767L23.8304 26.7235L18.5538 32.0001ZM14.8091 35.7448L18.5538 32.0001L3.06445 16.5107C5.95807 25.3618 10.3836 31.4895 14.8091 35.7448Z" fill="#009985"/>
<path d="M34.5533 37.447L29.2767 42.7236L30.4682 43.915C37.2767 45.2767 40.0001 42.7236 40.0001 42.7236L34.5533 37.447ZM14.8086 35.7448C16.6809 37.6172 18.7235 39.1491 20.5958 40.1704C23.6597 41.7023 26.2129 42.7235 28.4256 43.2342L29.1065 42.5533L18.5533 32.0001L14.8086 35.7448ZM35.2341 48.681L39.8299 53.2767L45.1065 48.0001L39.8299 42.7236C39.8299 42.7236 37.9575 45.1065 35.2341 48.681ZM55.8299 37.447L50.5533 32.1704L45.2767 37.447L50.5533 42.7236L45.2767 48.0001L50.5533 53.2767L64.3405 39.4895C65.1916 35.4044 65.3618 31.3193 65.3618 27.915L55.8299 37.447Z" fill="#0069B4"/>
<path d="M29.2763 42.7235L28.5955 43.4043C29.2763 43.5745 29.7869 43.7448 30.4678 43.915L29.2763 42.7235ZM45.2763 48.0001L24.1699 69.1065C29.6167 65.1916 36.0848 61.9575 46.1274 59.2341C58.2125 56.0001 62.638 47.6596 64.3401 39.4894L50.5529 53.2767L45.2763 48.0001ZM80.3401 7.48943C77.6167 8.3405 75.7444 8.51071 74.0423 8.51071L50.5529 32.0001L55.8295 37.2767L65.3614 27.7448V27.4043C65.3614 17.532 68.5955 15.8299 74.3827 12.4256C80.3401 9.02135 100.766 3.74475 100.766 3.74475C96.5103 3.40433 85.1061 5.95752 80.3401 7.48943Z" fill="#364B9B"/>
<path d="M10.7227 80.0003C15.6588 75.9152 19.5737 72.1705 24.1695 68.9365L39.829 53.2769L35.2333 48.6811C28.0844 57.8726 14.8078 74.8939 10.7227 80.0003ZM70.4673 8.34071C67.7439 8.00029 61.1056 5.27688 55.9993 9.87263C52.4248 13.1067 50.3822 20.4258 48.3397 27.0641L45.2758 37.4471L74.0418 8.51093C72.6801 8.51093 71.6588 8.34071 70.4673 8.34071Z" fill="#41C0F0"/>
</svg>
