<svg viewBox="0 0 222 47" xmlns="http://www.w3.org/2000/svg" fill-rule="evenodd" clip-rule="evenodd" stroke-linejoin="round" stroke-miterlimit="2"><g fill="#424241" fill-rule="nonzero"><path d="M86.3 40.1c-.3.7-1.1 1.1-2.1 1.1-.9 0-1.7-.4-2.2-1l.6-.6c0 .1.1.1.1.2.4.4.9.7 1.5.7.7 0 1.1-.3 1.3-.7.1-.3 0-.6 0-.6-.2-.5-.6-.6-1.3-.8-.7-.2-1.6-.5-1.9-1.3-.2-.4-.1-.9.1-1.3.5-.9 1.6-.9 1.8-.9.9 0 1.7.4 2.2 1l-.6.6c0-.1-.1-.1-.1-.2-.4-.4-.9-.7-1.5-.7 0 0-.7 0-1 .5-.1.2-.1.5-.1.7.2.4.6.6 1.3.8.8.2 1.6.5 1.9 1.3 0 .1.2.7 0 1.2zM92.4 35.8h-1.9v5.3h-.9v-5.3h-1.9v-.7h4.6v.7h.1zM98.3 41.1h-1l-.6-1.6h-2.4l-.6 1.6h-1l2.5-6h.5l2.6 6zm-1.9-2.3l-.9-2.4-.9 2.4h1.8zM102.9 39.2l1.3 1.9h-1l-1.2-1.7h-1.4v1.7h-.9v-5.9h2.3c1.2 0 2.1.9 2.1 2.1.1.8-.4 1.6-1.2 1.9zm-2.2-.6h1.4c.7 0 1.2-.6 1.2-1.4 0-.8-.6-1.4-1.2-1.4h-1.4v2.8zM110.1 35.8h-1.9v5.3h-.9v-5.3h-1.9v-.7h4.6v.7h.1zM116.3 35.1v3.6c0 1-.4 2.5-2.4 2.5s-2.4-1.5-2.4-2.5v-3.6h.9v3.6c0 .4.1 1.8 1.5 1.8s1.5-1.4 1.5-1.8v-3.6h.9zM120.6 39.5h-1.4v1.6h-.9v-6h2.3c1.2 0 2.1 1 2.1 2.2 0 1.2-.9 2.2-2.1 2.2zm1.2-2.2c0-.8-.6-1.5-1.2-1.5h-1.4v2.9h1.4c.7.1 1.2-.6 1.2-1.4zM132.3 41.1h-1l-.6-1.6h-2.4l-.6 1.6h-1l2.5-6h.5l2.6 6zm-1.8-2.3l-.9-2.4-.9 2.4h1.8zM138.5 40.3c-.6.6-1.3 1-2.2 1-1.7 0-3-1.4-3-3.2 0-1.7 1.4-3.1 3-3.1.9 0 1.7.4 2.2 1l-.6.6c0-.1-.1-.1-.1-.2-.4-.4-.9-.7-1.5-.7s-1.1.2-1.5.7c-.4.5-.6 1.1-.6 1.7 0 .7.2 1.3.6 1.7.4.4.9.7 1.5.7s1.1-.2 1.5-.7l.1-.1.6.6zM145.4 40.3c-.6.6-1.3 1-2.2 1-1.7 0-3-1.4-3-3.2 0-1.7 1.4-3.1 3-3.1.9 0 1.7.4 2.2 1l-.6.6c0-.1-.1-.1-.1-.2-.4-.4-.9-.7-1.5-.7s-1.1.2-1.5.7c-.4.5-.6 1.1-.6 1.7 0 .7.2 1.3.6 1.7.4.4.9.7 1.5.7s1.1-.2 1.5-.7l.1-.1.6.6zM151.6 40.3v.8h-4.1v-6h4v.7h-3.1v1.8h2.5v.7h-2.5v2h3.2zM157.3 40.4v.7h-3.9v-6h.9v5.3h3zM163.2 40.3v.8h-4.1v-6h4v.7H160v1.8h2.5v.7H160v2h3.2zM168.2 39.2l1.3 1.9h-1l-1.2-1.7H166v1.7h-.9v-5.9h2.3c1.2 0 2.1.9 2.1 2.1 0 .8-.5 1.6-1.3 1.9zm-2.2-.6h1.4c.7 0 1.2-.6 1.2-1.4 0-.8-.6-1.4-1.2-1.4H166v2.8zM176.3 41.1h-1l-.6-1.6h-2.4l-.6 1.6h-1l2.5-6h.5l2.6 6zm-1.9-2.3l-.9-2.4-.9 2.4h1.8zM181.2 35.8h-1.9v5.3h-.9v-5.3h-1.9v-.7h4.6v.7h.1zM188.3 38.1c0 1.7-1.4 3.2-3 3.2-1.7 0-3-1.4-3-3.2 0-1.7 1.4-3.1 3-3.1 1.6-.1 3 1.4 3 3.1zm-4.6-1.7c-.4.5-.6 1.1-.6 1.7 0 .7.2 1.3.6 1.7.4.4.9.7 1.5.7s1.1-.2 1.5-.7c.4-.5.6-1.1.6-1.7 0-.6-.2-1.3-.6-1.7-.4-.4-.9-.7-1.5-.7-.5 0-1.1.2-1.5.7zM193.2 39.2l1.3 1.9h-1l-1.2-1.7h-1.4v1.7h-.9v-5.9h2.3c1.2 0 2.1.9 2.1 2.1.1.8-.4 1.6-1.2 1.9zm-2.3-.6h1.4c.7 0 1.2-.6 1.2-1.4 0-.8-.6-1.4-1.2-1.4h-1.4v2.8z"/></g><g fill="#424241" fill-rule="nonzero"><path d="M74.3 26.8c-1.8 0-3.6-.4-4.9-1l.6-2.7c1.4.4 2.8.7 4.4.7 1.8 0 2.1-.3 2.1-1.6 0-1.4-.1-1.5-2.6-2.1-3.7-.8-4.3-1.5-4.3-4.9 0-3.1 1.1-4.3 5.3-4.3 1.3 0 2.9.1 4.6.5l-.3 2.9c-1.7-.3-2.9-.4-4.3-.4-1.5 0-1.9.3-1.9 1.4 0 1.5.1 1.5 2.5 2.1 4.1 1 4.3 1.8 4.3 4.8.1 3.2-.9 4.6-5.5 4.6zM85.6 18.1l-.2 8.5h-3.3l.6-15.3h3.4l3.7 9.7 3.7-9.7H97l.6 15.3h-3.3l-.3-8.5-2.7 6.5h-3.1l-2.6-6.5zM113.2 26.6h-3.6l-.8-3h-5.1l-.8 3h-3.6l4.7-15.3h4.6l4.6 15.3zm-8.8-5.8h3.5l-1.7-6.4-1.8 6.4zM120.4 21.9h-2v4.8H115V11.3h6.4c3.7 0 5.1 1.5 5.1 4.3v1.9c0 1.9-.7 3.2-2.2 3.8l3.7 5.2h-4.1l-3.5-4.6zm2.5-5.9c0-1.2-.4-1.6-1.8-1.6h-2.7v4.5h2.7c1.5 0 1.8-.5 1.8-1.7V16zM135.5 14.4v12.3H132V14.4h-4.1v-3.1h11.7v3.1h-4.1zM161.1 26.8c-3.7 0-5.6-1.9-5.6-4.7v-6.4c0-2.8 1.9-4.7 5.6-4.7 1.8 0 3.6.2 4.9.5l-.4 3c-1.3-.2-3.4-.4-4.5-.4-1.7 0-2.2.9-2.2 2.1v5.3c0 1.2.4 2.2 2.2 2.2.7 0 1.2 0 2-.1v-4.7h3.2v7.2c-1.6.5-3.4.7-5.2.7zM174.7 21.9h-2v4.8h-3.4V11.3h6.4c3.7 0 5.1 1.5 5.1 4.3v1.9c0 1.9-.7 3.2-2.2 3.8l3.7 5.2h-4.1l-3.5-4.6zm2.6-5.9c0-1.2-.4-1.6-1.8-1.6h-2.7v4.5h2.7c1.5 0 1.8-.5 1.8-1.7V16zM184.1 26.7V11.3h9.6v3.1h-6.2v2.8h5.7v3.1h-5.7v3.3h6.2v3.1h-9.6zM196.3 26.7V11.3h9.6v3.1h-6.2v2.8h5.7v3.1h-5.7v3.3h6.2v3.1h-9.6z"/><path d="M196.3 26.7V11.3h9.6v3.1h-6.2v2.8h5.7v3.1h-5.7v3.3h6.2v3.1h-9.6zM211.9 16.5v10.1h-3.3V11.3h4.2l5 10.6V11.3h3.3v15.3h-4.3l-4.9-10.1z"/></g><path d="M149.401 14.655l-3.819 3.817 3.817 3.819 3.819-3.817-3.817-3.819z" fill="#009985"/><path d="M145.534 10.903l-3.819 3.819 3.819 3.818 3.818-3.818-3.818-3.819z" fill="#95c11f"/><path d="M145.506 18.512l-3.817 3.819 3.819 3.818 3.817-3.819-3.819-3.818z" fill="#95c11f"/><g><path d="M62.677 15.11l-3.818 3.818 3.818 3.819 3.818-3.819-3.818-3.818z" fill="#009985"/><path d="M58.928 18.973l-3.817 3.819 3.819 3.817 3.818-3.819-3.82-3.817zM58.883 11.291l-3.818 3.818 3.819 3.818 3.818-3.819-3.819-3.817z" fill="#95c11f"/></g><g fill-rule="nonzero"><path d="M47.2 4.4c-2.8.9-4.2.6-5.8.5-1.6-.2-5.5-1.8-8.5.9-2.1 1.9-3.3 6.2-4.5 10.1L26.6 22s.7-3.8-4.3-6.8-6.4-3.6-9.5-5.7C7 5.6 1.8 1.6 0 0c.9 13.9 7.2 20.5 12.1 23.7 8.3 4.2 11.3 1.4 11.3 1.4S9.6 42.8 6.3 47c6.4-5.4 10-9.3 20.8-12.3C38 31.9 38.4 22 38.4 16.2c0-5.8 1.9-6.8 5.3-8.8 3.5-2 15.5-5.1 15.5-5.1-2.5-.3-9.2 1.2-12 2.1z" fill="#95c11f"/><path d="M24.9 17.4c-.6-.7-1.5-1.5-2.7-2.2-5-3-6.4-3.6-9.5-5.7C7 5.6 1.8 1.6 0 0c0 .6.1 1.2.2 1.8L20.3 22l4.6-4.6z" fill="#95c11f"/><path d="M1.8 9.7l9.1 9.1 3.1-3.1L.2 1.8c.3 3 .8 5.6 1.6 7.9zm23.1 7.7L20.3 22l3.1 3.1 3.1-3.1c.1 0 .4-2.3-1.6-4.6z" fill="#50af47"/><path d="M26.6 22l-3.1 3.1 3.1 3.1 3.1-3.1-3.1-3.1zm-15.7-3.2l6.2 6.2 3.1-3.1-6.2-6.2-3.1 3.1zM8.7 21l2.2-2.2-9.1-9.1c1.7 5.2 4.3 8.8 6.9 11.3z" fill="#009985"/><path d="M20.3 22l-3.1 3.1.7.7c4 .8 5.6-.7 5.6-.7L20.3 22zM8.7 21c1.1 1.1 2.3 2 3.4 2.6 1.8.9 3.3 1.5 4.6 1.8l.4-.4-6.2-6.2L8.7 21zm12 7.6l2.7 2.7 3.1-3.1-3.1-3.1s-1.1 1.4-2.7 3.5zM32.8 22l-3.1-3.1-3.1 3.1 3.1 3.1-3.1 3.1 3.1 3.1 8.1-8.1c.5-2.4.6-4.8.6-6.8L32.8 22z" fill="#0069b4"/><path d="M17.2 25.1l-.4.4c.4.1.7.2 1.1.3l-.7-.7zm9.4 3.1L14.2 40.6c3.2-2.3 7-4.2 12.9-5.8 7.1-1.9 9.7-6.8 10.7-11.6l-8.1 8.1-3.1-3.1zM47.2 4.4c-1.6.5-2.7.6-3.7.6L29.7 18.8l3.1 3.1 5.6-5.6v-.2c0-5.8 1.9-6.8 5.3-8.8 3.5-2 15.5-5.1 15.5-5.1-2.5-.2-9.2 1.3-12 2.2z" fill="#364b9b"/><path d="M6.3 47c2.9-2.4 5.2-4.6 7.9-6.5l9.2-9.2-2.7-2.7C16.5 34 8.7 44 6.3 47zM41.4 4.9c-1.6-.2-5.5-1.8-8.5.9-2.1 1.9-3.3 6.2-4.5 10.1L26.6 22 43.5 5c-.8 0-1.4-.1-2.1-.1z" fill="#41c0f0"/></g></svg>